<?xml version="1.0" encoding="iso-8859-1"?>
<!-- Generator: Adobe Illustrator 19.0.0, SVG Export Plug-In . SVG Version: 6.00 Build 0)  -->
<svg version="1.1" id="Layer_1" xmlns="http://www.w3.org/2000/svg" xmlns:xlink="http://www.w3.org/1999/xlink" x="0px" y="0px"
	 viewBox="0 0 512 512" style="enable-background:new 0 0 512 512;" xml:space="preserve">
<path style="fill:#9C11A9;" d="M502.865,188.049C473.095,79.648,373.856,0,256,0C114.615,0,0,114.615,0,256
	c0,117.856,79.648,217.094,188.049,246.865L502.865,188.049z"/>
<path style="fill:#20162F;" d="M512,256c0-23.529-3.191-46.309-9.135-67.951l-89.458-89.458L98.592,413.408l89.458,89.458
	c21.641,5.944,44.422,9.135,67.951,9.135C397.385,512,512,397.384,512,256z"/>
<path style="fill:#FFF3AD;" d="M256,33.391L144.696,256L256,478.609c122.943,0,222.609-99.665,222.609-222.609
	S378.943,33.391,256,33.391z"/>
<path style="fill:#FFFFFF;" d="M33.391,256c0,122.943,99.665,222.609,222.609,222.609V33.391
	C133.057,33.391,33.391,133.057,33.391,256z"/>
<path style="fill:#FFD23E;" d="M256,66.783L161.391,256L256,445.217c104.501,0,189.217-84.715,189.217-189.217
	S360.501,66.783,256,66.783z"/>
<path style="fill:#FFE376;" d="M66.783,256c0,104.503,84.716,189.217,189.217,189.217V66.783
	C151.499,66.783,66.783,151.497,66.783,256z"/>
<path style="fill:#F72E12;" d="M311.652,78.915l-27.826,55.652l27.826,55.652c30.736,0,55.652-24.917,55.652-55.652
	S342.388,78.915,311.652,78.915z"/>
<g>
	<path style="fill:#F8513A;" d="M256,134.567c0,30.736,24.917,55.652,55.652,55.652V78.915C280.917,78.915,256,103.831,256,134.567z
		"/>
	<path style="fill:#F8513A;" d="M311.652,101.176l-16.696,33.391l16.696,33.391c18.441,0,33.391-14.949,33.391-33.391
		S330.093,101.176,311.652,101.176z"/>
</g>
<path style="fill:#FA7461;" d="M278.261,134.567c0,18.442,14.95,33.391,33.391,33.391v-66.783
	C293.211,101.176,278.261,116.125,278.261,134.567z"/>
<path style="fill:#6E259B;" d="M256,89.043l-33.391,111.304L256,311.652c61.472,0,111.304-49.832,111.304-111.304
	S317.472,89.043,256,89.043z"/>
<path style="fill:#9C11A9;" d="M144.696,200.348c0,61.472,49.832,111.304,111.304,111.304V89.043
	C194.528,89.043,144.696,138.876,144.696,200.348z"/>
<path style="fill:#FFE376;" d="M256,111.304l-33.391,89.043L256,289.391c49.178,0,89.043-39.866,89.043-89.043
	S305.178,111.304,256,111.304z"/>
<g>
	<path style="fill:#FFF3AD;" d="M166.957,200.348c0,49.178,39.866,89.043,89.043,89.043V111.304
		C206.822,111.304,166.957,151.17,166.957,200.348z"/>
	<path style="fill:#FFF3AD;" d="M256,133.565l-25.043,66.783L256,267.13c36.883,0,66.783-29.9,66.783-66.783
		S292.883,133.565,256,133.565z"/>
</g>
<path style="fill:#FFFFFF;" d="M189.217,200.348c0,36.883,29.9,66.783,66.783,66.783V133.565
	C219.117,133.565,189.217,163.465,189.217,200.348z"/>
<path style="fill:#81982D;" d="M256,222.609l-30.052,100.174L256,422.957c55.325,0,100.174-44.849,100.174-100.174
	S311.325,222.609,256,222.609z"/>
<path style="fill:#A0AD2F;" d="M155.826,322.783c0,55.325,44.849,100.174,100.174,100.174V222.609
	C200.675,222.609,155.826,267.458,155.826,322.783z"/>
<path style="fill:#FFF3AD;" d="M256,244.87l-23.374,77.913L256,400.696c43.03,0,77.913-34.883,77.913-77.913
	S299.03,244.87,256,244.87z"/>
<path style="fill:#FFFFFF;" d="M178.087,322.783c0,43.03,34.883,77.913,77.913,77.913V244.87
	C212.97,244.87,178.087,279.752,178.087,322.783z"/>
<g>
	
		<rect x="207.726" y="299.458" transform="matrix(-0.309 0.9511 -0.9511 -0.309 581.8716 198.4091)" style="fill:#FFE65A;" width="22.262" height="22.262"/>
	
		<rect x="221.713" y="343.082" transform="matrix(0.809 0.5878 -0.5878 0.809 252.6793 -69.2126)" style="fill:#FFE65A;" width="22.261" height="22.261"/>
	
		<rect x="267.502" y="343.27" transform="matrix(0.809 -0.5878 0.5878 0.809 -155.1 231.4697)" style="fill:#FFE65A;" width="22.261" height="22.261"/>
	
		<rect x="281.793" y="299.761" transform="matrix(-0.309 -0.9511 0.9511 -0.309 87.7559 685.5438)" style="fill:#FFE65A;" width="22.262" height="22.262"/>
</g>
<path style="fill:#F72E12;" d="M311.652,433.085l-27.826-55.652l27.826-55.652c30.736,0,55.652,24.917,55.652,55.652
	S342.388,433.085,311.652,433.085z"/>
<g>
	<path style="fill:#F8513A;" d="M256,377.433c0-30.736,24.917-55.652,55.652-55.652v111.304
		C280.917,433.085,256,408.169,256,377.433z"/>
	<path style="fill:#F8513A;" d="M311.652,410.824l-16.696-33.391l16.696-33.391c18.441,0,33.391,14.949,33.391,33.391
		S330.093,410.824,311.652,410.824z"/>
</g>
<path style="fill:#FA7461;" d="M278.261,377.433c0-18.442,14.95-33.391,33.391-33.391v66.783
	C293.211,410.824,278.261,395.875,278.261,377.433z"/>
<path style="fill:#44702A;" d="M345.043,155.826L314.991,256l30.052,100.174c55.325,0,100.174-44.849,100.174-100.174
	S400.368,155.826,345.043,155.826z"/>
<path style="fill:#63842C;" d="M244.87,256c0,55.325,44.849,100.174,100.174,100.174V155.826
	C289.719,155.826,244.87,200.675,244.87,256z"/>
<path style="fill:#FFF3AD;" d="M345.043,178.087L321.67,256l23.374,77.913c43.03,0,77.913-34.883,77.913-77.913
	S388.074,178.087,345.043,178.087z"/>
<path style="fill:#FFFFFF;" d="M267.13,256c0,43.03,34.883,77.913,77.913,77.913V178.087C302.013,178.087,267.13,212.97,267.13,256z
	"/>
<g>
	<rect x="333.913" y="205.913" style="fill:#FFE65A;" width="22.261" height="22.261"/>
	
		<rect x="296.769" y="232.677" transform="matrix(-0.309 0.9511 -0.9511 -0.309 634.9146 26.3093)" style="fill:#FFE65A;" width="22.262" height="22.262"/>
	
		<rect x="310.758" y="276.295" transform="matrix(0.809 0.5878 -0.5878 0.809 230.429 -134.31)" style="fill:#FFE65A;" width="22.261" height="22.261"/>
	
		<rect x="356.536" y="276.483" transform="matrix(0.809 -0.5878 0.5878 0.809 -98.837 271.0485)" style="fill:#FFE65A;" width="22.261" height="22.261"/>
	
		<rect x="370.843" y="232.976" transform="matrix(-0.309 -0.9511 0.9511 -0.309 267.8383 682.8157)" style="fill:#FFE65A;" width="22.262" height="22.262"/>
</g>
<polygon style="fill:#81982D;" points="100.174,365.887 122.435,133.86 144.696,133.86 144.696,174.011 133.565,185.141 
	144.696,196.273 144.696,263.054 133.565,274.185 144.696,285.315 144.696,365.887 "/>
<polygon style="fill:#A0AD2F;" points="100.173,196.699 111.304,207.83 100.173,218.961 100.173,365.887 122.434,365.887 
	122.434,133.86 100.173,133.86 "/>
<path style="fill:#63842C;" d="M122.435,397.05l-11.88-69.565l45.271,11.13C155.826,362.183,140.576,388.182,122.435,397.05z"/>
<g>
	<path style="fill:#81982D;" d="M110.554,338.616l11.88-58.435c18.143,8.87,33.391,34.867,33.391,58.435H110.554z"/>
	<path style="fill:#81982D;" d="M89.043,338.616l33.391-11.13v69.565C104.292,388.182,89.043,362.183,89.043,338.616z"/>
</g>
<path style="fill:#A0AD2F;" d="M89.043,338.616c0-23.568,15.249-49.565,33.391-58.435v58.435H89.043z"/>
<rect x="100.174" y="196.697" style="fill:#BEC130;" width="22.261" height="22.261"/>
<g>
	<rect x="122.435" y="263.057" style="fill:#63842C;" width="22.261" height="22.261"/>
	<rect x="122.435" y="174.013" style="fill:#63842C;" width="22.261" height="22.261"/>
</g>
<polygon style="fill:#81982D;" points="144.696,118.384 166.957,433.093 189.217,433.093 189.217,221.615 178.087,210.485 
	189.217,199.355 189.217,118.384 "/>
<polygon style="fill:#A0AD2F;" points="144.695,118.384 144.695,243.876 155.826,255.007 144.695,266.138 144.696,288.397 
	155.826,299.529 144.696,310.659 144.695,366.311 155.826,377.442 144.695,388.571 144.695,433.093 166.957,433.093 
	166.957,118.384 "/>
<path style="fill:#63842C;" d="M166.957,75.557l-11.88,69.565l45.271-11.13C200.348,110.424,185.098,84.425,166.957,75.557z"/>
<g>
	<path style="fill:#81982D;" d="M155.076,133.992l11.88,58.435c18.143-8.87,33.391-34.867,33.391-58.435
		C200.347,133.992,155.076,133.992,155.076,133.992z"/>
	<path style="fill:#81982D;" d="M133.565,133.992l33.391,11.13V75.557C148.814,84.425,133.565,110.424,133.565,133.992z"/>
</g>
<path style="fill:#A0AD2F;" d="M133.565,133.992c0,23.568,15.249,49.565,33.391,58.435v-58.435
	C166.957,133.992,133.565,133.992,133.565,133.992z"/>
<g>
	<rect x="144.696" y="366.314" style="fill:#BEC130;" width="22.261" height="22.261"/>
	<rect x="144.696" y="288.401" style="fill:#BEC130;" width="22.261" height="22.261"/>
	<rect x="144.696" y="243.879" style="fill:#BEC130;" width="22.261" height="22.261"/>
</g>
<rect x="166.957" y="199.357" style="fill:#63842C;" width="22.261" height="22.261"/>
<g>
</g>
<g>
</g>
<g>
</g>
<g>
</g>
<g>
</g>
<g>
</g>
<g>
</g>
<g>
</g>
<g>
</g>
<g>
</g>
<g>
</g>
<g>
</g>
<g>
</g>
<g>
</g>
<g>
</g>
</svg>
