<?xml version="1.0" encoding="iso-8859-1"?>
<!-- Generator: Adobe Illustrator 19.0.0, SVG Export Plug-In . SVG Version: 6.00 Build 0)  -->
<svg version="1.1" id="Layer_1" xmlns="http://www.w3.org/2000/svg" xmlns:xlink="http://www.w3.org/1999/xlink" x="0px" y="0px"
	 viewBox="0 0 512 512" style="enable-background:new 0 0 512 512;" xml:space="preserve">
<g>
	<path style="fill:#39B54A;" d="M143.002,157.594l-14.916-4.971l4.829-14.487c2.977-8.929,11.3-14.927,20.711-14.927
		c12.038,0,21.831,9.794,21.831,21.831v10.069h-15.722V145.04c0-3.369-2.741-6.109-6.109-6.109c-2.634,0-4.963,1.679-5.796,4.178
		L143.002,157.594z"/>
	<path style="fill:#39B54A;" d="M80.008,157.594l-4.829-14.487c-0.832-2.499-3.162-4.177-5.795-4.177
		c-3.369,0-6.109,2.741-6.109,6.109v10.069H47.554V145.04c0-12.037,9.794-21.831,21.831-21.831c9.412,0,17.735,5.999,20.711,14.928
		l4.829,14.486L80.008,157.594z"/>
</g>
<path style="fill:#8CC63F;" d="M119.366,147.095h-15.722V66.967c0-22.008,17.905-39.913,39.913-39.913
	c22.007,0,39.912,17.905,39.912,39.913v24.039h-15.722V66.967c0-13.339-10.852-24.191-24.19-24.191
	c-13.339,0-24.191,10.852-24.191,24.191V147.095z"/>
<path style="fill:#FBB03B;" d="M151.57,187.16c0-22.127-17.937-40.065-40.065-40.065S71.44,165.033,71.44,187.16l7.284,257.142
	c0,18.104,14.677,32.781,32.781,32.781s32.781-14.677,32.781-32.781L151.57,187.16z"/>
<path style="fill:#AE7418;" d="M111.505,147.095c-4.217,0-8.202,0.831-12.02,2.039c16.213,5.129,28.045,20.116,28.045,38.026
	l-7.284,257.142c0,13.85-8.618,25.634-20.761,30.435c3.729,1.475,7.765,2.346,12.02,2.346c18.104,0,32.78-14.677,32.78-32.781
	l7.284-257.142C151.57,165.034,133.631,147.095,111.505,147.095z"/>
<path style="fill:#FCC062;" d="M107.498,147.095c4.217,0,8.202,0.831,12.02,2.039c-16.214,5.129-28.045,20.116-28.045,38.026
	l7.284,257.142c0,13.85,8.618,25.634,20.761,30.435c-3.729,1.475-7.765,2.346-12.02,2.346c-18.104,0-32.78-14.677-32.78-32.781
	L67.434,187.16C67.434,165.034,85.371,147.095,107.498,147.095z"/>
<path style="fill:#FBB03B;" d="M79.369,451.363c0,14.483-12.427,24.152-26.91,24.152s-26.203-11.685-26.203-26.168L7.326,203.159
	c0-17.701,14.271-32.037,31.972-32.037s31.972,14.364,31.972,32.066v39.616"/>
<path style="fill:#FCC062;" d="M50.315,449.402L31.376,203.186c0-13.444,8.296-24.916,20.032-29.675
	c-3.717-1.507-7.762-2.377-12.02-2.377c-17.703,0.001-32.052,14.351-32.052,32.052l18.939,246.216
	c0,14.484,11.741,26.225,26.224,26.225c4.514,0,8.773-1.024,12.579-2.741C56.367,468.623,50.315,459.756,50.315,449.402z"/>
<path id="SVGCleanerId_0" style="fill:#FBB03B;" d="M143.759,451.363c0,14.483,12.368,24.152,26.851,24.152
	c14.483,0,26.173-11.685,26.173-26.168l18.914-246.188c0-17.701-14.16-32.037-31.861-32.037s-31.861,14.363-31.861,32.065v39.616"/>
<g>
	<path id="SVGCleanerId_0_1_" style="fill:#FBB03B;" d="M143.759,451.363c0,14.483,12.368,24.152,26.851,24.152
		c14.483,0,26.173-11.685,26.173-26.168l18.914-246.188c0-17.701-14.16-32.037-31.861-32.037s-31.861,14.363-31.861,32.065v39.616"
		/>
</g>
<path style="fill:#AE7418;" d="M183.621,171.135c-5.868,0-11.295,1.692-16.026,4.445c9.541,5.553,16.026,15.773,16.026,27.606
	l-18.939,246.216c0,8.731-4.311,16.41-10.872,21.176c4.659,3.183,10.454,5.048,16.699,5.048c14.484,0,26.224-11.741,26.224-26.225
	l18.939-246.216C215.673,185.484,201.323,171.135,183.621,171.135z"/>
<path style="fill:#39B54A;" d="M223.686,475.626c-26.553,0-48.078-21.525-48.078-48.078s21.525-48.078,48.078-48.078l-8.013,24.038
	l16.026,24.038l-16.026,24.039L223.686,475.626z"/>
<path style="fill:#93278F;" d="M223.686,387.484h70.172c21.767,0,42.643-8.647,58.035-24.038l0,0
	c15.391-15.391,36.268-24.038,58.035-24.038h26.101c37.617,0,68.11,30.494,68.11,68.11l0,0c0,37.617-30.494,68.11-68.11,68.11
	H223.686"/>
<path style="fill:#662D91;" d="M470.601,348.906c5.996,10.143,9.5,21.829,9.5,34.465c0,37.616-30.494,68.004-68.11,68.004H223.247
	v24.106h212.782c37.615,0,68.11-30.422,68.11-68.038C504.139,382.465,490.65,360.76,470.601,348.906z"/>
<circle style="fill:#A952A5;" cx="424.011" cy="403.509" r="48.078"/>
<path d="M170.509,483.381c-19.847,0-34.813-13.14-34.813-32.006h15.722c0,8.385,6.558,16.284,19.091,16.284
	c5.028,0,9.72-1.94,13.213-5.558l11.311,10.893C188.55,479.71,179.841,483.381,170.509,483.381z"/>
<rect x="111.099" y="267.958" width="16.77" height="15.722"/>
<g>
	<path style="fill:#FFFFFF;" d="M428.016,459.76H376.27v-15.722h51.746c20.06,0,36.38-15.722,36.38-36.684h15.722
		C480.118,436.702,456.745,459.76,428.016,459.76z"/>
	<rect x="319.672" y="444.04" style="fill:#FFFFFF;" width="39.828" height="15.722"/>
</g>
<path d="M436.029,331.545h-26.101c-24.023,0-46.607,9.354-63.594,26.341c-14.017,14.017-32.653,21.737-52.477,21.737h-61.905
	l2.639-7.904h-10.907c-5.205,0-10.24,0.734-15.024,2.076l14.813-169.98l0.029-0.682c0-21.993-17.925-39.887-39.957-39.887
	c-10.031,0-19.203,3.722-26.227,9.847c-6.025-19.583-24.283-33.859-45.815-33.859c-21.408,0-39.579,14.111-45.709,33.518
	c-6.959-5.979-16.016-9.599-25.968-9.599C17.729,163.155,0,181.159,0,203.16v0.303l18.713,246.21
	c0.174,18.615,15.166,33.71,33.877,33.71c11.59,0,21.692-4.977,28.004-12.736c7.46,8.741,18.546,14.299,30.911,14.299
	c22.37,0,40.576-18.168,40.64-40.524l0.248-8.766h15.917c3.833,27.155,27.199,48.213,55.376,48.213h10.907l-0.126-0.379h201.562
	c41.891,0,75.971-34.08,75.971-75.971S477.92,331.545,436.029,331.545z M52.792,467.66c-10.15,0-18.205-8.218-18.205-18.314v-0.303
	l-6.671-85.709h19.248v-15.722H26.693L15.424,202.824c0.152-13.203,10.816-23.949,24.154-23.949
	c13.43,0,24.357,10.474,24.357,24.099h0.092l1.157,40.876H39.828v15.722h25.801l5.234,184.848c0.008,2.777,0.298,5.49,0.838,8.112
	C71.011,462.275,61.739,467.66,52.792,467.66z M136.427,444.081l-0.003,0.222c0,13.741-11.178,24.92-24.919,24.92
	s-24.92-11.179-24.92-24.92l-0.928-32.755h25.442v-15.722H85.213l-2.73-96.426h28.616v-15.722H82.037l-2.737-96.624
	c0.057-17.71,14.482-32.099,32.204-32.099s32.148,14.389,32.204,32.099l-0.451,15.919h-15.389v15.722h14.944l-5.701,201.236h-9.243
	v15.722h8.797L136.427,444.081z M157.857,242.802h9.84v-15.722h-8.385v-23.895c0-13.354,10.872-24.218,24.235-24.218
	c13.256,0,24.061,10.669,24.233,23.847l-11.248,129.076h-20.451v15.722h19.081l-2.951,33.874
	c-12.703,8.714-21.654,22.531-23.9,38.446H152.84L157.857,242.802z M212.226,466.102c-16.609-4.947-28.757-20.358-28.757-38.554
	s12.147-33.608,28.757-38.554l-5.225,15.677l15.251,22.877l-15.251,22.877L212.226,466.102z M436.029,467.766H229.257l-4.909-14.813
	l16.8-25.377l-16.8-25.173l2.357-7.058h67.155c24.023,0,46.607-9.354,63.594-26.341c14.017-14.017,32.654-21.737,52.477-21.737
	h26.101c33.222,0,60.249,27.028,60.249,60.249S469.251,467.766,436.029,467.766z"/>
<g>
</g>
<g>
</g>
<g>
</g>
<g>
</g>
<g>
</g>
<g>
</g>
<g>
</g>
<g>
</g>
<g>
</g>
<g>
</g>
<g>
</g>
<g>
</g>
<g>
</g>
<g>
</g>
<g>
</g>
</svg>
