<?xml version="1.0" encoding="iso-8859-1"?>
<!-- Generator: Adobe Illustrator 18.0.0, SVG Export Plug-In . SVG Version: 6.00 Build 0)  -->
<!DOCTYPE svg PUBLIC "-//W3C//DTD SVG 1.1//EN" "http://www.w3.org/Graphics/SVG/1.1/DTD/svg11.dtd">
<svg version="1.1" id="Capa_1" xmlns="http://www.w3.org/2000/svg" xmlns:xlink="http://www.w3.org/1999/xlink" x="0px" y="0px"
	 viewBox="0 0 297.508 297.508" style="enable-background:new 0 0 297.508 297.508;" xml:space="preserve">
<g id="XMLID_48_">
	<g>
		<path style="fill:#682045;" d="M240.58,131.928l13.04-10.18c-30.19,94.65-71.07,129.11-100.41,141.27
			c-29.51,12.23-54,5.29-60.94,1.58c-8.87-4.74-17.6-12.54-17.09-19.31c0.29-3.79,4.82-17.4,51.06-33.73
			c48.99-17.3,74.85-47.39,87.9-69.59c4-6.79,7.08-13.27,9.44-19.11l1.48,4.41c1.03,3.06,3.47,5.42,6.56,6.35
			c0.93,0.28,1.9,0.42,2.85,0.42C236.66,134.038,238.82,133.308,240.58,131.928z"/>
		<path style="fill:#C45A57;" d="M169.8,150.698c0,5.32-1.02,10.79-2.91,16.19c-13.31,10.83-29.08,19.53-47.26,25.95
			c-18.56,6.55-33.02,13.49-43.49,20.89c-32.67-8.4-56.03-37.47-56.03-63.03c0-14.9,8.06-25.99,20.41-33.6l8.64,4.32v29.73
			c0,3.44,1.78,6.64,4.71,8.45s6.58,1.97,9.66,0.43l31.43-15.71l31.42,15.71c1.4,0.7,2.92,1.05,4.44,1.05c1.82,0,3.63-0.5,5.22-1.48
			c2.93-1.81,4.71-5.01,4.71-8.45v-29.73l8.64-4.32C161.74,124.708,169.8,135.798,169.8,150.698z"/>
		<path style="fill:#D5BA2F;" d="M138.23,100.478l-11.85,5.92c-3.36,1.68-5.49,5.12-5.49,8.88v19.8l-21.49-10.74
			c-1.4-0.7-2.92-1.05-4.44-1.05c-1.53,0-3.05,0.35-4.45,1.05l-21.49,10.74v-19.8c0-3.76-2.12-7.2-5.49-8.88l-11.85-5.92l33.35-8.34
			v5.21c0,5.49,4.44,9.93,9.93,9.93c5.48,0,9.93-4.44,9.93-9.93v-5.21L138.23,100.478z"/>
		<path style="fill:#D5BA2F;" d="M274.19,66.198c1.55,0.77,2.43,2.44,2.19,4.15l-4.52,32.25l-5.04-5.15
			c-3.53-3.62-9.22-4-13.21-0.89l-14.2,11.09l-4.48-13.33c-0.84-2.5-2.64-4.56-5-5.73l-5.45-2.71l27.5-27.65
			c1.22-1.22,3.08-1.53,4.62-0.76L274.19,66.198z"/>
		<path d="M291.74,8.798c4.91,2.44,6.92,8.4,4.48,13.31l-13.1,26.36c9.15,4.6,14.35,14.48,12.93,24.64l-7.33,52.26
			c-0.52,3.75-3.13,6.87-6.73,8.05c-3.6,1.19-7.55,0.22-10.2-2.49l-0.2-0.2c-13.6,41.81-30.48,75.97-50.25,101.65
			c-17.93,23.29-38.29,39.77-60.52,48.99c-14.93,6.19-29.11,8.38-41.37,8.38c-16.74,0-29.9-4.08-36.53-7.63
			c-6.87-3.66-29.13-17.26-27.54-38.33c0.38-4.96,2.02-9.74,4.93-14.35c-11.67-4.52-22.56-11.29-32.06-20.15
			c-17.79-16.56-28-37.92-28-58.59c0-17.42,7.32-32.33,20.3-43.58l-1.76-0.89c-3.72-1.85-5.89-5.83-5.43-9.96
			c0.45-4.13,3.43-7.54,7.46-8.55l64.21-16.05v-28.12c0-5.48,4.44-9.93,9.93-9.93c5.48,0,9.93,4.45,9.93,9.93v28.12l64.2,16.05
			c4.04,1.01,7.01,4.42,7.47,8.55c0.45,4.13-1.72,8.11-5.43,9.96l-1.77,0.89c11.18,9.69,18.16,22.1,19.87,36.49
			c2.61-3.5,5.06-7.13,7.32-10.91c7.82-13.07,11.64-24.85,13.41-31.86l-6.65-3.3c-2.86-1.42-4.86-4.13-5.38-7.28
			c-0.52-3.15,0.51-6.35,2.76-8.62l37.21-37.41c7.23-7.27,18.24-9.11,27.44-4.59l13.09-26.36
			C280.87,8.368,286.83,6.358,291.74,8.798z M276.38,70.348c0.24-1.71-0.64-3.38-2.19-4.15l-17.59-8.73
			c-1.54-0.77-3.4-0.46-4.62,0.76l-27.5,27.65l5.45,2.71c2.36,1.17,4.16,3.23,5,5.73l4.48,13.33l14.2-11.09
			c3.99-3.11,9.68-2.73,13.21,0.89l5.04,5.15L276.38,70.348z M253.62,121.748l-13.04,10.18c-1.76,1.38-3.92,2.11-6.11,2.11
			c-0.95,0-1.92-0.14-2.85-0.42c-3.09-0.93-5.53-3.29-6.56-6.35l-1.48-4.41c-2.36,5.84-5.44,12.32-9.44,19.11
			c-13.05,22.2-38.91,52.29-87.9,69.59c-46.24,16.33-50.77,29.94-51.06,33.73c-0.51,6.77,8.22,14.57,17.09,19.31
			c6.94,3.71,31.43,10.65,60.94-1.58C182.55,250.858,223.43,216.398,253.62,121.748z M166.89,166.888
			c1.89-5.4,2.91-10.87,2.91-16.19c0-14.9-8.06-25.99-20.41-33.6l-8.64,4.32v29.73c0,3.44-1.78,6.64-4.71,8.45
			c-1.59,0.98-3.4,1.48-5.22,1.48c-1.52,0-3.04-0.35-4.44-1.05l-31.42-15.71l-31.43,15.71c-3.08,1.54-6.73,1.38-9.66-0.43
			s-4.71-5.01-4.71-8.45v-29.73l-8.64-4.32c-12.35,7.61-20.41,18.7-20.41,33.6c0,25.56,23.36,54.63,56.03,63.03
			c10.47-7.4,24.93-14.34,43.49-20.89C137.81,186.418,153.58,177.718,166.89,166.888z M126.38,106.398l11.85-5.92l-33.34-8.34v5.21
			c0,5.49-4.45,9.93-9.93,9.93c-5.49,0-9.93-4.44-9.93-9.93v-5.21l-33.35,8.34l11.85,5.92c3.37,1.68,5.49,5.12,5.49,8.88v19.8
			l21.49-10.74c1.4-0.7,2.92-1.05,4.45-1.05c1.52,0,3.04,0.35,4.44,1.05l21.49,10.74v-19.8
			C120.89,111.518,123.02,108.078,126.38,106.398z"/>
	</g>
	<g>
	</g>
</g>
<g>
</g>
<g>
</g>
<g>
</g>
<g>
</g>
<g>
</g>
<g>
</g>
<g>
</g>
<g>
</g>
<g>
</g>
<g>
</g>
<g>
</g>
<g>
</g>
<g>
</g>
<g>
</g>
<g>
</g>
</svg>
