<?xml version="1.0" encoding="iso-8859-1"?>
<!-- Generator: Adobe Illustrator 19.0.0, SVG Export Plug-In . SVG Version: 6.00 Build 0)  -->
<svg version="1.1" id="Layer_1" xmlns="http://www.w3.org/2000/svg" xmlns:xlink="http://www.w3.org/1999/xlink" x="0px" y="0px"
	 viewBox="0 0 512 512" style="enable-background:new 0 0 512 512;" xml:space="preserve">
<path style="fill:#E07188;" d="M354.154,243.397c0-0.065,0.003-0.129,0.003-0.191c0-0.032-0.005-0.066-0.005-0.099
	c-0.106-51.944-15.302-91.427-45.222-117.378c-25.839-22.414-61.651-33.778-106.437-33.778c-8.443-0.001-16.976,0.71-25.414,2.117
	c-8.443-1.407-16.974-2.12-25.414-2.117c-44.818,0-80.617,11.278-106.399,33.523C15.228,151.388-0.001,190.999,0,243.206
	c-0.001,47.299,18.418,91.767,51.865,125.213s77.914,51.866,125.213,51.865c47.302,0,91.769-18.419,125.215-51.865
	c33.308-33.306,51.705-77.547,51.857-124.628c0-0.047,0.008-0.093,0.008-0.14C354.157,243.566,354.154,243.483,354.154,243.397z"/>
<path style="fill:#DC4161;" d="M354.157,243.206c0-0.032-0.005-0.066-0.005-0.099c-0.106-51.944-15.302-91.427-45.222-117.378
	c-25.839-22.414-61.651-33.778-106.437-33.778c-8.443-0.001-16.976,0.71-25.414,2.117v326.214
	c47.299,0,91.768-18.419,125.213-51.865c33.308-33.306,51.705-77.547,51.857-124.628c0-0.047,0.008-0.093,0.008-0.14
	c0-0.084-0.003-0.169-0.003-0.253C354.154,243.332,354.157,243.27,354.157,243.206z"/>
<path style="fill:#A8DA64;" d="M241.503,138.916l-40.995-31.597l15.735-40.484c3.894-10.026-1.074-21.31-11.096-25.205
	c-10.024-3.896-21.306,1.072-25.203,11.095l-19.049,49.009l-48.239,37.18c-8.518,6.566-10.101,18.793-3.536,27.31
	c0.521,0.679,1.079,1.312,1.668,1.9c6.818,6.818,17.8,7.677,25.641,1.636l21.178-16.323v20.826
	c-0.001,5.377,2.18,10.245,5.704,13.767c3.523,3.524,8.391,5.705,13.767,5.705c10.755,0,19.473-8.718,19.472-19.472v-20.826
	l21.178,16.323c8.518,6.565,20.744,4.982,27.31-3.536C251.601,157.708,250.019,145.478,241.503,138.916z"/>
<path style="fill:#E17858;" d="M443.266,263.921c3.023-23.564-5.943-47.778-24.597-66.431l-21.909-21.909
	c-18.652-18.652-42.865-27.614-66.427-24.591c-23.564,3.022-44.73,17.809-58.068,40.564L125.229,442.376
	c-4.481,7.645-3.238,17.35,3.029,23.616c6.265,6.265,15.972,7.511,23.616,3.031L402.698,321.99
	C425.457,308.652,440.244,287.486,443.266,263.921z"/>
<path style="fill:#DD512A;" d="M443.266,263.921c3.023-23.564-5.943-47.778-24.597-66.431l-10.954-10.954L128.259,465.994
	c6.265,6.264,15.971,7.51,23.614,3.03l250.825-147.032C425.457,308.652,440.244,287.486,443.266,263.921z"/>
<path style="fill:#E17858;" d="M404.384,292.735l-35.402-35.402c-7.604-7.603-19.932-7.603-27.537,0
	c-7.603,7.604-7.604,19.935,0,27.539l35.4,35.4c7.605,7.603,19.933,7.603,27.539,0C411.988,312.668,411.988,300.34,404.384,292.735z
	"/>
<path style="fill:#DD512A;" d="M285.762,283.647l-24.72-24.722c0-0.001,0,0,0-0.001c-7.603-7.603-19.933-7.603-27.537,0
	c-7.604,7.603-7.604,19.932-0.003,27.536l24.722,24.723c0.001,0,0,0,0.001,0c7.602,7.603,19.933,7.604,27.536,0.001
	C293.365,303.58,293.365,291.253,285.762,283.647z"/>
<path style="fill:#A8DA64;" d="M511.879,187.201c-1.188-10.689-10.816-18.391-21.504-17.203l-43.407,4.824l37.418-37.419
	c7.604-7.603,7.604-19.933,0-27.537c-7.603-7.604-19.933-7.604-27.537,0l-37.419,37.419l4.823-43.407
	c1.185-10.689-6.514-20.315-17.202-21.502c-10.689-1.188-20.316,6.514-21.504,17.202l-10.951,98.577
	c-0.005,0.04-0.003,0.079-0.007,0.119c-0.003,0.022-0.007,0.04-0.009,0.064c-0.004,0.034-0.013,0.069-0.016,0.104
	c-0.031,0.338-0.035,0.679-0.049,1.019c-0.013,0.299-0.038,0.597-0.038,0.897c0,0.03-0.003,0.064-0.001,0.095
	c0.001,0.223,0.03,0.45,0.038,0.674c0.018,0.404,0.031,0.804,0.074,1.205c0.004,0.042,0.003,0.083,0.008,0.127
	c0.003,0.023,0.008,0.043,0.01,0.066c0.026,0.222,0.069,0.437,0.101,0.657c0.016,0.092,0.029,0.183,0.043,0.274
	c0.035,0.214,0.057,0.428,0.099,0.64c0.027,0.135,0.065,0.266,0.092,0.4c0.056,0.247,0.116,0.487,0.179,0.73
	c0.051,0.195,0.091,0.396,0.147,0.587c0.038,0.129,0.087,0.249,0.129,0.378c0.035,0.112,0.075,0.221,0.113,0.332
	c0.061,0.187,0.119,0.374,0.188,0.558c0.051,0.139,0.101,0.282,0.157,0.421c0.075,0.188,0.164,0.374,0.244,0.56
	c0.158,0.362,0.319,0.723,0.499,1.072c0.101,0.199,0.209,0.393,0.317,0.587c0.167,0.301,0.338,0.597,0.517,0.888
	c0.049,0.079,0.097,0.16,0.148,0.239c0.091,0.141,0.186,0.28,0.283,0.419c0.234,0.343,0.476,0.67,0.728,0.994
	c0.07,0.087,0.131,0.183,0.201,0.271c0.049,0.061,0.104,0.122,0.154,0.184c0.389,0.47,0.794,0.927,1.224,1.357
	c0.003,0.003,0.007,0.005,0.009,0.009l0,0l0,0c0.004,0.003,0.007,0.007,0.009,0.009c0.43,0.43,0.887,0.836,1.357,1.224
	c0.062,0.051,0.123,0.105,0.184,0.154c0.088,0.071,0.184,0.132,0.271,0.201c0.325,0.251,0.652,0.495,0.994,0.728
	c0.138,0.095,0.278,0.192,0.419,0.283c0.078,0.051,0.16,0.099,0.239,0.148c0.291,0.18,0.587,0.351,0.888,0.517
	c0.193,0.108,0.388,0.215,0.587,0.317c0.35,0.179,0.71,0.34,1.072,0.498c0.186,0.08,0.37,0.169,0.56,0.244
	c0.138,0.055,0.28,0.105,0.419,0.157c0.187,0.07,0.376,0.127,0.566,0.191c0.109,0.036,0.217,0.077,0.326,0.11
	c0.129,0.04,0.249,0.09,0.378,0.129c0.191,0.056,0.388,0.095,0.582,0.145c0.245,0.064,0.489,0.126,0.739,0.18
	c0.132,0.03,0.261,0.068,0.395,0.092c0.212,0.042,0.426,0.064,0.64,0.099c0.086,0.014,0.174,0.027,0.26,0.04
	c0.226,0.034,0.448,0.08,0.675,0.105c0.021,0.001,0.04,0.007,0.062,0.009c0.043,0.005,0.084,0.004,0.127,0.008
	c0.402,0.042,0.805,0.057,1.209,0.074c0.221,0.009,0.447,0.036,0.667,0.039c0.032-0.001,0.068-0.003,0.099-0.004
	c0.301,0.003,0.605-0.025,0.905-0.038c0.338-0.014,0.676-0.017,1.007-0.048c0.049-0.004,0.097-0.017,0.148-0.021
	c0.005-0.001,0.013-0.003,0.018-0.004c0.04-0.004,0.082-0.001,0.122-0.006l98.578-10.954
	C505.365,207.516,513.067,197.889,511.879,187.201z"/>
<g>
	<path style="fill:#78B86D;" d="M511.879,187.201c-1.188-10.689-10.816-18.391-21.504-17.203l-43.407,4.824l37.418-37.419
		c7.604-7.603,7.604-19.933,0-27.537L380.178,214.073c0.004,0.003,0.007,0.007,0.009,0.009c0.43,0.43,0.887,0.836,1.357,1.224
		c0.062,0.051,0.123,0.105,0.184,0.154c0.088,0.071,0.184,0.132,0.271,0.201c0.325,0.251,0.652,0.495,0.994,0.728
		c0.138,0.095,0.278,0.192,0.419,0.283c0.078,0.051,0.16,0.099,0.239,0.148c0.291,0.18,0.587,0.35,0.888,0.517
		c0.193,0.108,0.388,0.215,0.587,0.317c0.35,0.179,0.71,0.34,1.072,0.498c0.186,0.08,0.37,0.169,0.56,0.244
		c0.138,0.055,0.28,0.105,0.419,0.157c0.187,0.07,0.376,0.127,0.566,0.191c0.109,0.036,0.217,0.077,0.326,0.11
		c0.129,0.04,0.249,0.09,0.378,0.129c0.191,0.056,0.388,0.095,0.582,0.145c0.245,0.064,0.489,0.126,0.739,0.18
		c0.132,0.03,0.261,0.068,0.395,0.092c0.212,0.042,0.426,0.064,0.64,0.099c0.086,0.014,0.174,0.027,0.26,0.04
		c0.226,0.034,0.448,0.08,0.675,0.105c0.021,0.001,0.04,0.007,0.062,0.009c0.043,0.005,0.084,0.004,0.127,0.008
		c0.402,0.042,0.805,0.057,1.209,0.074c0.221,0.009,0.447,0.036,0.667,0.039c0.032-0.001,0.068-0.003,0.099-0.004
		c0.301,0.003,0.605-0.025,0.905-0.038c0.338-0.014,0.676-0.017,1.007-0.048c0.049-0.004,0.097-0.017,0.148-0.021
		c0.005-0.001,0.013-0.003,0.018-0.004c0.04-0.004,0.082-0.001,0.122-0.007l98.578-10.954
		C505.365,207.516,513.067,197.889,511.879,187.201z"/>
	<path style="fill:#78B86D;" d="M241.503,138.916l-40.995-31.597l15.735-40.484c3.894-10.026-1.074-21.31-11.096-25.205
		c-10.024-3.896-21.306,1.072-25.203,11.095l-2.864,7.368v133.642c10.754,0,19.472-8.72,19.471-19.472v-20.826l21.178,16.323
		c8.518,6.565,20.744,4.982,27.31-3.536C251.601,157.708,250.019,145.478,241.503,138.916z"/>
</g>
<g>
</g>
<g>
</g>
<g>
</g>
<g>
</g>
<g>
</g>
<g>
</g>
<g>
</g>
<g>
</g>
<g>
</g>
<g>
</g>
<g>
</g>
<g>
</g>
<g>
</g>
<g>
</g>
<g>
</g>
</svg>
